<svg width="857" height="190" viewBox="0 0 857 190" fill="none" xmlns="http://www.w3.org/2000/svg">
<path opacity="0.05" d="M81.8699 0.39999C107.523 0.39999 127.457 8.63333 141.67 25.1C156.057 41.5667 163.25 64.7933 163.25 94.78C163.25 114.367 159.957 131.267 153.37 145.48C146.957 159.693 137.597 170.613 125.29 178.24C113.157 185.693 98.6833 189.42 81.8699 189.42C65.0566 189.42 50.5833 185.693 38.4499 178.24C26.3166 170.787 16.9566 160.04 10.3699 146C3.95659 131.787 0.749922 114.713 0.749922 94.78C0.749922 75.3667 3.95659 58.5533 10.3699 44.34C16.9566 30.1267 26.3166 19.2933 38.4499 11.84C50.5833 4.21333 65.0566 0.39999 81.8699 0.39999ZM81.8699 31.6C69.5633 31.6 60.3766 36.6267 54.3099 46.68C48.4166 56.56 45.4699 72.5933 45.4699 94.78C45.4699 116.967 48.5033 133.087 54.5699 143.14C60.6366 153.193 69.7366 158.22 81.8699 158.22C94.3499 158.22 103.537 153.28 109.43 143.4C115.497 133.347 118.53 117.14 118.53 94.78C118.53 72.42 115.497 56.3 109.43 46.42C103.363 36.54 94.1766 31.6 81.8699 31.6ZM266.316 185V77.36H229.136V185H188.056V46.94H307.396V185H266.316ZM455.598 46.94V185H414.518V77.1H388.258L385.658 106.48C383.751 126.76 381.498 141.927 378.898 151.98C376.471 161.86 372.138 169.66 365.898 175.38C359.658 181.1 350.124 185.433 337.298 188.38L327.158 158.48C332.878 155.88 336.864 153.193 339.118 150.42C341.544 147.473 343.364 142.88 344.578 136.64C345.791 130.227 346.918 119.48 347.958 104.4L352.118 46.94H455.598ZM597.639 144.96C597.639 150.16 598.332 153.973 599.719 156.4C601.279 158.827 603.706 160.647 606.999 161.86L598.419 188.64C589.926 187.947 582.992 186.127 577.619 183.18C572.245 180.06 568.086 175.207 565.139 168.62C556.125 182.487 542.259 189.42 523.539 189.42C509.845 189.42 498.925 185.433 490.779 177.46C482.632 169.487 478.559 159.087 478.559 146.26C478.559 131.18 484.105 119.653 495.199 111.68C506.292 103.707 522.325 99.72 543.299 99.72H557.339V93.74C557.339 85.5933 555.606 80.0467 552.139 77.1C548.672 73.98 542.605 72.42 533.939 72.42C529.432 72.42 523.972 73.1133 517.559 74.5C511.145 75.7133 504.559 77.4467 497.799 79.7L488.439 52.66C497.105 49.3667 505.945 46.8533 514.959 45.12C524.145 43.3867 532.639 42.52 540.439 42.52C560.199 42.52 574.672 46.5933 583.859 54.74C593.046 62.8867 597.639 75.1067 597.639 91.4V144.96ZM535.499 160.04C544.859 160.04 552.139 155.62 557.339 146.78V122.34H547.199C537.839 122.34 530.819 123.987 526.139 127.28C521.632 130.573 519.379 135.687 519.379 142.62C519.379 148.167 520.765 152.5 523.539 155.62C526.485 158.567 530.472 160.04 535.499 160.04ZM733.442 46.94L728.502 77.36H691.062V185H649.982V77.36H609.682V46.94H733.442ZM847.229 144.96C847.229 150.16 847.922 153.973 849.309 156.4C850.869 158.827 853.295 160.647 856.589 161.86L848.009 188.64C839.515 187.947 832.582 186.127 827.209 183.18C821.835 180.06 817.675 175.207 814.729 168.62C805.715 182.487 791.849 189.42 773.129 189.42C759.435 189.42 748.515 185.433 740.369 177.46C732.222 169.487 728.149 159.087 728.149 146.26C728.149 131.18 733.695 119.653 744.789 111.68C755.882 103.707 771.915 99.72 792.889 99.72H806.929V93.74C806.929 85.5933 805.195 80.0467 801.729 77.1C798.262 73.98 792.195 72.42 783.529 72.42C779.022 72.42 773.562 73.1133 767.149 74.5C760.735 75.7133 754.149 77.4467 747.389 79.7L738.029 52.66C746.695 49.3667 755.535 46.8533 764.549 45.12C773.735 43.3867 782.229 42.52 790.029 42.52C809.789 42.52 824.262 46.5933 833.449 54.74C842.635 62.8867 847.229 75.1067 847.229 91.4V144.96ZM785.089 160.04C794.449 160.04 801.729 155.62 806.929 146.78V122.34H796.789C787.429 122.34 780.409 123.987 775.729 127.28C771.222 130.573 768.969 135.687 768.969 142.62C768.969 148.167 770.355 152.5 773.129 155.62C776.075 158.567 780.062 160.04 785.089 160.04Z" fill="#333333"/>
</svg>
