<svg width="1250" height="166" viewBox="0 0 1250 166" fill="none" xmlns="http://www.w3.org/2000/svg">
<path opacity="0.05" d="M123.915 0.530996L120.187 29.889H80.3436V162H42.1316V29.889H0.424637V0.530996H123.915ZM233.74 97.692C233.74 102.818 233.507 107.245 233.041 110.973H156.384C157.626 121.38 160.578 128.681 165.238 132.875C169.898 137.069 176.344 139.166 184.577 139.166C189.547 139.166 194.363 138.312 199.023 136.603C203.683 134.739 208.731 131.943 214.168 128.215L229.313 148.719C214.867 160.214 198.79 165.961 181.082 165.961C161.044 165.961 145.666 160.058 134.948 148.253C124.23 136.448 118.871 120.604 118.871 100.721C118.871 88.139 121.123 76.8773 125.628 66.936C130.132 56.8393 136.734 48.9173 145.433 43.17C154.131 37.2673 164.539 34.316 176.655 34.316C194.518 34.316 208.498 39.908 218.595 51.092C228.691 62.276 233.74 77.8093 233.74 97.692ZM197.625 87.207C197.314 68.2563 190.635 58.781 177.587 58.781C171.218 58.781 166.247 61.111 162.675 65.771C159.257 70.431 157.16 78.12 156.384 88.838H197.625V87.207ZM318.799 95.828L358.642 162H316.935L295.499 115.633L274.529 162H234.453L274.296 96.993L238.414 38.277H279.655L296.897 77.887L313.44 38.277H352.584L318.799 95.828ZM441.525 162V112.837H407.507V162H370.693V38.277H407.507V85.576H441.525V38.277H478.339V162H441.525ZM560.806 34.316C579.757 34.316 594.591 40.141 605.309 51.791C616.027 63.2857 621.386 79.4403 621.386 100.255C621.386 113.458 618.901 125.031 613.93 134.972C609.115 144.758 602.125 152.369 592.96 157.806C583.951 163.243 573.233 165.961 560.806 165.961C542.011 165.961 527.176 160.214 516.303 148.719C505.585 137.069 500.226 120.837 500.226 100.022C500.226 86.8187 502.634 75.324 507.449 65.538C512.42 55.5967 519.41 47.9077 528.419 42.471C537.584 37.0343 548.379 34.316 560.806 34.316ZM560.806 61.344C553.35 61.344 547.758 64.5283 544.03 70.897C540.302 77.1103 538.438 86.8187 538.438 100.022C538.438 113.536 540.224 123.4 543.797 129.613C547.525 135.826 553.195 138.933 560.806 138.933C568.262 138.933 573.854 135.826 577.582 129.613C581.31 123.244 583.174 113.458 583.174 100.255C583.174 86.741 581.31 76.8773 577.582 70.664C574.009 64.4507 568.417 61.344 560.806 61.344ZM744.927 38.277V162H708.113V65.305H684.58L682.25 91.634C680.541 109.808 678.522 123.4 676.192 132.409C674.017 141.263 670.134 148.253 664.542 153.379C658.95 158.505 650.407 162.388 638.912 165.029L629.825 138.234C634.951 135.904 638.524 133.496 640.543 131.011C642.718 128.37 644.349 124.254 645.436 118.662C646.523 112.915 647.533 103.284 648.465 89.77L652.193 38.277H744.927ZM827.482 34.316C846.432 34.316 861.267 40.141 871.985 51.791C882.703 63.2857 888.062 79.4403 888.062 100.255C888.062 113.458 885.576 125.031 880.606 134.972C875.79 144.758 868.8 152.369 859.636 157.806C850.626 163.243 839.908 165.961 827.482 165.961C808.686 165.961 793.852 160.214 782.979 148.719C772.261 137.069 766.902 120.837 766.902 100.022C766.902 86.8187 769.309 75.324 774.125 65.538C779.095 55.5967 786.085 47.9077 795.095 42.471C804.259 37.0343 815.055 34.316 827.482 34.316ZM827.482 61.344C820.026 61.344 814.434 64.5283 810.706 70.897C806.978 77.1103 805.114 86.8187 805.114 100.022C805.114 113.536 806.9 123.4 810.473 129.613C814.201 135.826 819.87 138.933 827.482 138.933C834.938 138.933 840.53 135.826 844.258 129.613C847.986 123.244 849.85 113.458 849.85 100.255C849.85 86.741 847.986 76.8773 844.258 70.664C840.685 64.4507 835.093 61.344 827.482 61.344ZM946.774 162H909.96V38.277H997.568L993.141 66.237H946.774V162ZM1119.57 162H1084.62V117.963C1084.62 109.264 1085.09 101.032 1086.02 93.265C1086.95 85.4983 1088.12 78.9743 1089.51 73.693L1048.27 162H1010.76V38.277H1045.94V83.013C1045.94 91.2457 1045.4 99.323 1044.31 107.245C1043.38 115.167 1042.29 121.691 1041.05 126.817L1081.82 38.277H1119.57V162ZM1249.31 38.277V162H1212.5V118.895H1196.65L1174.28 162H1134.91L1163.33 110.274C1157.28 107.012 1152.54 102.74 1149.12 97.459C1145.86 92.0223 1144.23 85.7313 1144.23 78.586C1144.23 65.3827 1149.12 55.3637 1158.91 48.529C1168.85 41.6943 1183.22 38.277 1202.01 38.277H1249.31ZM1212.5 96.993V61.81H1201.78C1195.1 61.81 1190.05 63.2857 1186.63 66.237C1183.37 69.1883 1181.74 73.3823 1181.74 78.819C1181.74 84.5663 1183.29 89.071 1186.4 92.333C1189.66 95.4397 1194.56 96.993 1201.08 96.993H1212.5Z" fill="#333333"/>
</svg>
